<svg xmlns="http://www.w3.org/2000/svg" width="48" height="48" viewBox="0 0 48 48"><path fill="#C5CAE9" d="M24.051 18.749L15 27 20 32 28.251 22.949z"/><path fill="#37474F" d="M42.415,4.585c-0.781-0.78-2.048-0.78-2.829,0L24.051,18.749l4.2,4.2L42.415,7.414C43.195,6.633,43.195,5.366,42.415,4.585z"/><path fill="#9FA8DA" d="M21.092 21.446L25.554 25.908 26.902 24.429 22.571 20.098z"/><path fill="#EF6C00" d="M15,27l-9.354,3.041c0,0-2.347,5.217,1.896,9.459c4.242,4.243,9.417,1.855,9.417,1.855L20,32L15,27z"/><path fill="#D84315" d="M5.066 32.366c-.072.612-.091 1.312-.009 2.063l.023.048 8.342-5.144L5.066 32.366zM12.716 34.284L6.88 38.76c.201.249.418.496.662.74s.492.461.741.663L12.716 34.284z"/></svg>